<mxfile host="Electron" agent="Mozilla/5.0 (Windows NT 10.0; Win64; x64) AppleWebKit/537.36 (KHTML, like Gecko) draw.io/25.0.2 Chrome/128.0.6613.186 Electron/32.2.5 Safari/537.36" version="25.0.2">
  <diagram name="Page-1" id="2YBvvXClWsGukQMizWep">
    <mxGraphModel dx="1034" dy="511" grid="1" gridSize="10" guides="1" tooltips="1" connect="1" arrows="1" fold="1" page="1" pageScale="1" pageWidth="850" pageHeight="1100" math="0" shadow="0">
      <root>
        <mxCell id="0" />
        <mxCell id="1" parent="0" />
        <mxCell id="_Ce9uf1wOAP1MZpKsaxj-1" value="Utente&lt;div&gt;&lt;br&gt;&lt;/div&gt;" style="shape=umlActor;verticalLabelPosition=bottom;verticalAlign=top;html=1;" vertex="1" parent="1">
          <mxGeometry x="50" y="290" width="30" height="60" as="geometry" />
        </mxCell>
        <mxCell id="_Ce9uf1wOAP1MZpKsaxj-3" value=":Catalogo_Control" style="shape=umlLifeline;perimeter=lifelinePerimeter;whiteSpace=wrap;html=1;container=1;dropTarget=0;collapsible=0;recursiveResize=0;outlineConnect=0;portConstraint=eastwest;newEdgeStyle={&quot;curved&quot;:0,&quot;rounded&quot;:0};" vertex="1" parent="1">
          <mxGeometry x="300" y="240" width="125" height="300" as="geometry" />
        </mxCell>
        <mxCell id="_Ce9uf1wOAP1MZpKsaxj-10" value="" style="html=1;points=[[0,0,0,0,5],[0,1,0,0,-5],[1,0,0,0,5],[1,1,0,0,-5]];perimeter=orthogonalPerimeter;outlineConnect=0;targetShapes=umlLifeline;portConstraint=eastwest;newEdgeStyle={&quot;curved&quot;:0,&quot;rounded&quot;:0};" vertex="1" parent="_Ce9uf1wOAP1MZpKsaxj-3">
          <mxGeometry x="57.5" y="95" width="10" height="105" as="geometry" />
        </mxCell>
        <mxCell id="_Ce9uf1wOAP1MZpKsaxj-4" value=":Catalogo" style="shape=umlLifeline;perimeter=lifelinePerimeter;whiteSpace=wrap;html=1;container=1;dropTarget=0;collapsible=0;recursiveResize=0;outlineConnect=0;portConstraint=eastwest;newEdgeStyle={&quot;curved&quot;:0,&quot;rounded&quot;:0};" vertex="1" parent="1">
          <mxGeometry x="440" y="240" width="100" height="300" as="geometry" />
        </mxCell>
        <mxCell id="_Ce9uf1wOAP1MZpKsaxj-13" value="" style="html=1;points=[[0,0,0,0,5],[0,1,0,0,-5],[1,0,0,0,5],[1,1,0,0,-5]];perimeter=orthogonalPerimeter;outlineConnect=0;targetShapes=umlLifeline;portConstraint=eastwest;newEdgeStyle={&quot;curved&quot;:0,&quot;rounded&quot;:0};" vertex="1" parent="_Ce9uf1wOAP1MZpKsaxj-4">
          <mxGeometry x="45" y="110" width="10" height="50" as="geometry" />
        </mxCell>
        <mxCell id="_Ce9uf1wOAP1MZpKsaxj-5" value=":NavBar_Boundary" style="shape=umlLifeline;perimeter=lifelinePerimeter;whiteSpace=wrap;html=1;container=1;dropTarget=0;collapsible=0;recursiveResize=0;outlineConnect=0;portConstraint=eastwest;newEdgeStyle={&quot;curved&quot;:0,&quot;rounded&quot;:0};" vertex="1" parent="1">
          <mxGeometry x="130" y="240" width="150" height="300" as="geometry" />
        </mxCell>
        <mxCell id="_Ce9uf1wOAP1MZpKsaxj-8" value="" style="html=1;points=[[0,0,0,0,5],[0,1,0,0,-5],[1,0,0,0,5],[1,1,0,0,-5]];perimeter=orthogonalPerimeter;outlineConnect=0;targetShapes=umlLifeline;portConstraint=eastwest;newEdgeStyle={&quot;curved&quot;:0,&quot;rounded&quot;:0};" vertex="1" parent="_Ce9uf1wOAP1MZpKsaxj-5">
          <mxGeometry x="70" y="60" width="10" height="160" as="geometry" />
        </mxCell>
        <mxCell id="_Ce9uf1wOAP1MZpKsaxj-9" value="" style="shape=umlDestroy;whiteSpace=wrap;html=1;strokeWidth=3;targetShapes=umlLifeline;" vertex="1" parent="_Ce9uf1wOAP1MZpKsaxj-5">
          <mxGeometry x="60" y="200" width="30" height="30" as="geometry" />
        </mxCell>
        <mxCell id="_Ce9uf1wOAP1MZpKsaxj-6" value="" style="endArrow=open;endFill=1;endSize=12;html=1;rounded=0;" edge="1" parent="1" source="_Ce9uf1wOAP1MZpKsaxj-1" target="_Ce9uf1wOAP1MZpKsaxj-5">
          <mxGeometry width="160" relative="1" as="geometry">
            <mxPoint x="340" y="410" as="sourcePoint" />
            <mxPoint x="500" y="410" as="targetPoint" />
          </mxGeometry>
        </mxCell>
        <mxCell id="_Ce9uf1wOAP1MZpKsaxj-7" value="clickCatalogo()" style="edgeLabel;html=1;align=center;verticalAlign=middle;resizable=0;points=[];" vertex="1" connectable="0" parent="_Ce9uf1wOAP1MZpKsaxj-6">
          <mxGeometry x="-0.3949" y="-1" relative="1" as="geometry">
            <mxPoint x="22" y="-11" as="offset" />
          </mxGeometry>
        </mxCell>
        <mxCell id="_Ce9uf1wOAP1MZpKsaxj-11" value="" style="endArrow=open;endFill=1;endSize=12;html=1;rounded=0;entryX=0;entryY=0;entryDx=0;entryDy=5;entryPerimeter=0;" edge="1" parent="1" source="_Ce9uf1wOAP1MZpKsaxj-8" target="_Ce9uf1wOAP1MZpKsaxj-10">
          <mxGeometry width="160" relative="1" as="geometry">
            <mxPoint x="180" y="360" as="sourcePoint" />
            <mxPoint x="350" y="340" as="targetPoint" />
          </mxGeometry>
        </mxCell>
        <mxCell id="_Ce9uf1wOAP1MZpKsaxj-12" value="visualizzaCatalogo()" style="edgeLabel;html=1;align=center;verticalAlign=middle;resizable=0;points=[];" vertex="1" connectable="0" parent="_Ce9uf1wOAP1MZpKsaxj-11">
          <mxGeometry x="-0.2588" y="-1" relative="1" as="geometry">
            <mxPoint x="15" y="-11" as="offset" />
          </mxGeometry>
        </mxCell>
        <mxCell id="_Ce9uf1wOAP1MZpKsaxj-14" value="" style="endArrow=open;endFill=1;endSize=12;html=1;rounded=0;" edge="1" parent="1" target="_Ce9uf1wOAP1MZpKsaxj-13">
          <mxGeometry width="160" relative="1" as="geometry">
            <mxPoint x="370" y="360" as="sourcePoint" />
            <mxPoint x="527.5" y="360" as="targetPoint" />
          </mxGeometry>
        </mxCell>
        <mxCell id="_Ce9uf1wOAP1MZpKsaxj-15" value="GetCatalogo()" style="edgeLabel;html=1;align=center;verticalAlign=middle;resizable=0;points=[];" vertex="1" connectable="0" parent="_Ce9uf1wOAP1MZpKsaxj-14">
          <mxGeometry x="0.2339" y="-2" relative="1" as="geometry">
            <mxPoint x="-17" y="-12" as="offset" />
          </mxGeometry>
        </mxCell>
        <mxCell id="_Ce9uf1wOAP1MZpKsaxj-16" value="films" style="html=1;verticalAlign=bottom;endArrow=open;dashed=1;endSize=8;curved=0;rounded=0;" edge="1" parent="1" source="_Ce9uf1wOAP1MZpKsaxj-13">
          <mxGeometry relative="1" as="geometry">
            <mxPoint x="450" y="389.5" as="sourcePoint" />
            <mxPoint x="370" y="389.5" as="targetPoint" />
          </mxGeometry>
        </mxCell>
        <mxCell id="_Ce9uf1wOAP1MZpKsaxj-17" value=":Catalogo_Boundary" style="shape=umlLifeline;perimeter=lifelinePerimeter;whiteSpace=wrap;html=1;container=1;dropTarget=0;collapsible=0;recursiveResize=0;outlineConnect=0;portConstraint=eastwest;newEdgeStyle={&quot;curved&quot;:0,&quot;rounded&quot;:0};" vertex="1" parent="1">
          <mxGeometry x="560" y="410" width="140" height="300" as="geometry" />
        </mxCell>
        <mxCell id="_Ce9uf1wOAP1MZpKsaxj-23" value="" style="html=1;points=[[0,0,0,0,5],[0,1,0,0,-5],[1,0,0,0,5],[1,1,0,0,-5]];perimeter=orthogonalPerimeter;outlineConnect=0;targetShapes=umlLifeline;portConstraint=eastwest;newEdgeStyle={&quot;curved&quot;:0,&quot;rounded&quot;:0};" vertex="1" parent="_Ce9uf1wOAP1MZpKsaxj-17">
          <mxGeometry x="65" y="50" width="10" height="80" as="geometry" />
        </mxCell>
        <mxCell id="_Ce9uf1wOAP1MZpKsaxj-18" value="" style="endArrow=open;endFill=1;endSize=12;html=1;rounded=0;" edge="1" parent="1" source="_Ce9uf1wOAP1MZpKsaxj-10">
          <mxGeometry width="160" relative="1" as="geometry">
            <mxPoint x="340" y="380" as="sourcePoint" />
            <mxPoint x="560" y="430" as="targetPoint" />
            <Array as="points">
              <mxPoint x="380" y="430" />
            </Array>
          </mxGeometry>
        </mxCell>
        <mxCell id="_Ce9uf1wOAP1MZpKsaxj-21" value="showCatalogo(films)" style="edgeLabel;html=1;align=center;verticalAlign=middle;resizable=0;points=[];" vertex="1" connectable="0" parent="_Ce9uf1wOAP1MZpKsaxj-18">
          <mxGeometry x="-0.4156" y="-2" relative="1" as="geometry">
            <mxPoint x="17" y="-12" as="offset" />
          </mxGeometry>
        </mxCell>
      </root>
    </mxGraphModel>
  </diagram>
</mxfile>
